<svg width="1920" height="1634" viewBox="0 0 1920 1634" fill="none" xmlns="http://www.w3.org/2000/svg">
<path d="M-23.0279 1337.46C52.5871 1337.46 113.885 1278.31 113.885 1205.34C113.885 1132.36 52.5871 1073.21 -23.0279 1073.21C-98.6429 1073.21 -159.941 1132.36 -159.941 1205.34C-159.941 1278.31 -98.6429 1337.46 -23.0279 1337.46Z" fill="#D9D9D9"/>
<path d="M304.95 1633.04C380.565 1633.04 441.863 1573.88 441.863 1500.91C441.863 1427.94 380.565 1368.78 304.95 1368.78C229.335 1368.78 168.037 1427.94 168.037 1500.91C168.037 1573.88 229.335 1633.04 304.95 1633.04Z" fill="#D9D9D9"/>
<rect width="42.9228" height="40.391" rx="20.1955" transform="matrix(0.707355 0.706859 0.717262 -0.696804 130.979 1277.54)" fill="#2DCC70"/>
<rect width="247.004" height="33.8994" rx="16.9497" transform="matrix(0.707355 0.706859 0.717262 -0.696804 170.286 1308.14)" fill="#2484FC"/>
<rect width="225.706" height="25.6862" rx="12.8431" transform="matrix(0.707355 0.706859 0.717262 -0.696804 -50.0156 1341.15)" fill="#2484FC"/>
<rect width="299.038" height="33.8994" rx="16.9497" transform="matrix(0.707355 0.706859 0.717262 -0.696804 -82.0093 1058.66)" fill="#2484FC"/>
<rect width="562.937" height="109.253" rx="54.6266" transform="matrix(0.707355 0.706859 0.717262 -0.696804 -169.137 1148.99)" fill="#2DCC70"/>
<path d="M1822 104C1822 178.006 1761.56 238 1687 238C1612.44 238 1552 178.006 1552 104C1552 29.9938 1612.44 -30 1687 -30C1761.56 -30 1822 29.9938 1822 104Z" fill="#D9D9D9"/>
<path d="M2124 425C2124 499.006 2063.56 559 1989 559C1914.44 559 1854 499.006 1854 425C1854 350.994 1914.44 291 1989 291C2063.56 291 2124 350.994 2124 425Z" fill="#D9D9D9"/>
<rect width="42.942" height="40.3846" rx="20.1923" transform="matrix(0.721902 0.691995 -0.712065 0.702113 1760.77 254.73)" fill="#2DCC70"/>
<rect width="247.115" height="33.894" rx="16.947" transform="matrix(0.721902 0.691995 -0.712065 0.702113 1792.04 293.201)" fill="#2484FC"/>
<rect width="225.807" height="25.682" rx="12.841" transform="matrix(0.721902 0.691995 -0.712065 0.702113 1825.76 77.5869)" fill="#2484FC"/>
<rect width="299.171" height="33.894" rx="16.947" transform="matrix(0.721902 0.691995 -0.712065 0.702113 1537.13 46.2739)" fill="#2484FC"/>
<rect width="563.189" height="109.236" rx="54.6179" transform="matrix(0.721902 0.691995 -0.712065 0.702113 1629.43 -39)" fill="#2DCC70"/>
</svg>
