<svg width="66" height="65" viewBox="0 0 66 65" fill="none" xmlns="http://www.w3.org/2000/svg">
<g clip-path="url(#clip0_711_4040)">
<path d="M33 14.8955C35.514 14.8955 37.9251 15.8942 39.7028 17.6719C41.4805 19.4496 42.4792 21.8606 42.4792 24.3747C42.4792 26.8887 41.4805 29.2998 39.7028 31.0775C37.9251 32.8551 35.514 33.8538 33 33.8538C30.486 33.8538 28.0749 32.8551 26.2972 31.0775C24.5195 29.2998 23.5208 26.8887 23.5208 24.3747C23.5208 21.8606 24.5195 19.4496 26.2972 17.6719C28.0749 15.8942 30.486 14.8955 33 14.8955ZM14.0417 21.6663C15.5583 21.6663 16.9667 22.0726 18.1854 22.8038C17.7792 26.6768 18.9167 30.5226 21.2458 33.5288C19.8917 36.1288 17.1833 37.9163 14.0417 37.9163C11.8868 37.9163 9.82016 37.0603 8.29642 35.5366C6.77269 34.0129 5.91667 31.9462 5.91667 29.7913C5.91667 27.6365 6.77269 25.5698 8.29642 24.0461C9.82016 22.5224 11.8868 21.6663 14.0417 21.6663ZM51.9583 21.6663C54.1132 21.6663 56.1798 22.5224 57.7036 24.0461C59.2273 25.5698 60.0833 27.6365 60.0833 29.7913C60.0833 31.9462 59.2273 34.0129 57.7036 35.5366C56.1798 37.0603 54.1132 37.9163 51.9583 37.9163C48.8167 37.9163 46.1083 36.1288 44.7542 33.5288C47.1145 30.4799 48.2104 26.6393 47.8146 22.8038C49.0333 22.0726 50.4417 21.6663 51.9583 21.6663ZM15.3958 49.4268C15.3958 43.8205 23.2771 39.2705 33 39.2705C42.7229 39.2705 50.6042 43.8205 50.6042 49.4268V54.1663H15.3958V49.4268ZM0.5 54.1663V50.1038C0.5 46.3393 5.61875 43.1705 12.5521 42.2497C10.9542 44.0913 9.97917 46.6372 9.97917 49.4268V54.1663H0.5ZM65.5 54.1663H56.0208V49.4268C56.0208 46.6372 55.0458 44.0913 53.4479 42.2497C60.3812 43.1705 65.5 46.3393 65.5 50.1038V54.1663Z" fill="#2484FC"/>
</g>
<defs>
<clipPath id="clip0_711_4040">
<rect width="65" height="65" fill="white" transform="translate(0.5)"/>
</clipPath>
</defs>
</svg>
