<svg width="60" height="60" viewBox="0 0 60 60" fill="none" xmlns="http://www.w3.org/2000/svg">
<path d="M54.3576 30.8274L31.8575 5.82738C30.91 4.77238 29.09 4.77238 28.1425 5.82738L5.64254 30.8274C5.31925 31.1867 5.10704 31.632 5.03161 32.1094C4.95618 32.5869 5.02076 33.0759 5.21754 33.5174C5.61754 34.4199 6.51254 34.9999 7.50005 34.9999H12.5V52.4999C12.5 53.1629 12.7634 53.7988 13.2323 54.2677C13.7011 54.7365 14.337 54.9999 15 54.9999H22.5C23.1631 54.9999 23.799 54.7365 24.2678 54.2677C24.7367 53.7988 25 53.1629 25 52.4999V42.4999H35V52.4999C35 53.1629 35.2634 53.7988 35.7323 54.2677C36.2011 54.7365 36.837 54.9999 37.5 54.9999H45C45.6631 54.9999 46.299 54.7365 46.7678 54.2677C47.2367 53.7988 47.5 53.1629 47.5 52.4999V34.9999H52.5C52.9842 35.0019 53.4585 34.8631 53.8651 34.6002C54.2718 34.3374 54.5931 33.9619 54.79 33.5196C54.9869 33.0773 55.0509 32.5872 54.9741 32.1092C54.8973 31.6312 54.6831 31.1858 54.3576 30.8274Z" fill="#2484FC"/>
</svg>
