<svg width="66" height="65" viewBox="0 0 66 65" fill="none" xmlns="http://www.w3.org/2000/svg">
<g clip-path="url(#clip0_711_4042)">
<path d="M43.5 52.0003H56.5V47.667H43.5V52.0003Z" fill="#2484FC"/>
<path fill-rule="evenodd" clip-rule="evenodd" d="M41.3334 0C39.6095 0 37.9562 0.684819 36.7372 1.90381C35.5182 3.12279 34.8334 4.77609 34.8334 6.5V13H6.66675C4.94284 13 3.28954 13.6848 2.07055 14.9038C0.851568 16.1228 0.166748 17.7761 0.166748 19.5L0.166748 45.5C0.166748 47.2239 0.851568 48.8772 2.07055 50.0962C3.28954 51.3152 4.94284 52 6.66675 52H26.1667V60.6667H17.5001V65H58.6668C60.3907 65 62.044 64.3152 63.2629 63.0962C64.4819 61.8772 65.1667 60.2239 65.1667 58.5V6.5C65.1667 4.77609 64.4819 3.12279 63.2629 1.90381C62.044 0.684819 60.3907 0 58.6668 0L41.3334 0ZM35.2017 60.6667H30.5001V52H34.8334V58.5C34.8363 59.2627 34.9591 59.9849 35.2017 60.6667ZM41.3334 60.6667H58.6668C59.2414 60.6667 59.7925 60.4384 60.1988 60.0321C60.6051 59.6257 60.8334 59.0746 60.8334 58.5V26H39.1667V58.5C39.1667 59.0746 39.395 59.6257 39.8013 60.0321C40.2077 60.4384 40.7588 60.6667 41.3334 60.6667ZM39.1667 21.6667H60.8334V6.5C60.8334 5.92536 60.6051 5.37426 60.1988 4.96794C59.7925 4.56161 59.2414 4.33333 58.6668 4.33333H41.3334C40.7588 4.33333 40.2077 4.56161 39.8013 4.96794C39.395 5.37426 39.1667 5.92536 39.1667 6.5V21.6667Z" fill="#2484FC"/>
</g>
<defs>
<clipPath id="clip0_711_4042">
<rect width="65" height="65" fill="white" transform="translate(0.166748)"/>
</clipPath>
</defs>
</svg>
