<svg width="59" height="58" viewBox="0 0 59 58" fill="none" xmlns="http://www.w3.org/2000/svg">
<g clip-path="url(#clip0_712_4047)">
<path d="M54.7083 5.43159L40.1956 5.43165V1.81934C40.1956 0.81793 39.3845 0.00683594 38.3831 0.00683594C37.3817 0.00683594 36.5706 0.81793 36.5706 1.81934V5.43074H22.0706V1.81934C22.0706 0.81793 21.2595 0.00683594 20.2581 0.00683594C19.2567 0.00683594 18.4456 0.81793 18.4456 1.81934V5.43074H3.95825C1.95635 5.43074 0.333252 7.05383 0.333252 9.05574V54.3682C0.333252 56.3701 1.95635 57.9932 3.95825 57.9932H54.7083C56.7102 57.9932 58.3333 56.3701 58.3333 54.3682V9.05574C58.3333 7.05468 56.7102 5.43159 54.7083 5.43159ZM54.7083 54.3682H3.95825V9.05574H18.4456V10.8818C18.4456 11.8832 19.2567 12.6943 20.2581 12.6943C21.2595 12.6943 22.0706 11.8832 22.0706 10.8818V9.05665H36.5706V10.8827C36.5706 11.8841 37.3817 12.6952 38.3831 12.6952C39.3845 12.6952 40.1956 11.8841 40.1956 10.8827V9.05665H54.7083V54.3682ZM42.0208 28.9941H45.6458C46.6463 28.9941 47.4583 28.1821 47.4583 27.1816V23.5566C47.4583 22.5561 46.6463 21.7441 45.6458 21.7441H42.0208C41.0203 21.7441 40.2083 22.5561 40.2083 23.5566V27.1816C40.2083 28.1821 41.0203 28.9941 42.0208 28.9941ZM42.0208 43.4932H45.6458C46.6463 43.4932 47.4583 42.6821 47.4583 41.6807V38.0557C47.4583 37.0552 46.6463 36.2432 45.6458 36.2432H42.0208C41.0203 36.2432 40.2083 37.0552 40.2083 38.0557V41.6807C40.2083 42.683 41.0203 43.4932 42.0208 43.4932ZM31.1458 36.2432H27.5208C26.5203 36.2432 25.7083 37.0552 25.7083 38.0557V41.6807C25.7083 42.6821 26.5203 43.4932 27.5208 43.4932H31.1458C32.1463 43.4932 32.9583 42.6821 32.9583 41.6807V38.0557C32.9583 37.0561 32.1463 36.2432 31.1458 36.2432ZM31.1458 21.7441H27.5208C26.5203 21.7441 25.7083 22.5561 25.7083 23.5566V27.1816C25.7083 28.1821 26.5203 28.9941 27.5208 28.9941H31.1458C32.1463 28.9941 32.9583 28.1821 32.9583 27.1816V23.5566C32.9583 22.5552 32.1463 21.7441 31.1458 21.7441ZM16.6458 21.7441H13.0208C12.0203 21.7441 11.2083 22.5561 11.2083 23.5566V27.1816C11.2083 28.1821 12.0203 28.9941 13.0208 28.9941H16.6458C17.6463 28.9941 18.4583 28.1821 18.4583 27.1816V23.5566C18.4583 22.5552 17.6463 21.7441 16.6458 21.7441ZM16.6458 36.2432H13.0208C12.0203 36.2432 11.2083 37.0552 11.2083 38.0557V41.6807C11.2083 42.6821 12.0203 43.4932 13.0208 43.4932H16.6458C17.6463 43.4932 18.4583 42.6821 18.4583 41.6807V38.0557C18.4583 37.0561 17.6463 36.2432 16.6458 36.2432Z" fill="#2484FC"/>
</g>
<defs>
<clipPath id="clip0_712_4047">
<rect width="58" height="58" fill="white" transform="translate(0.333252)"/>
</clipPath>
</defs>
</svg>
